<?xml version="1.0" standalone="no"?>
<!DOCTYPE svg PUBLIC "-//W3C//DTD SVG 20010904//EN"
 "http://www.w3.org/TR/2001/REC-SVG-20010904/DTD/svg10.dtd">
<svg version="1.0" xmlns="http://www.w3.org/2000/svg"
 width="266.000000pt" height="266.000000pt" viewBox="0 0 266.000000 266.000000"
 preserveAspectRatio="xMidYMid meet">
<metadata>
Created by potrace 1.14, written by Peter Selinger 2001-2017
</metadata>
<g transform="translate(0.000000,266.000000) scale(0.100000,-0.100000)"
fill="#000000" stroke="none">
<path d="M778 2315 c-2 -2 -19 -5 -38 -7 -45 -6 -60 -11 -148 -55 -110 -54
-207 -136 -337 -286 -106 -122 -193 -317 -197 -442 -4 -115 42 -264 132 -420
24 -42 80 -127 89 -135 3 -3 20 -25 36 -50 36 -53 289 -311 360 -366 28 -21
52 -41 55 -44 41 -41 212 -135 265 -146 68 -14 83 -16 114 -15 98 2 185 29
346 106 122 59 327 172 392 216 23 16 44 29 48 29 3 0 16 9 28 21 12 12 29 24
38 27 9 4 29 17 45 29 16 13 94 71 174 130 191 141 326 276 374 374 36 74 47
139 34 200 -22 100 -132 206 -318 308 -97 52 -373 187 -475 231 -191 82 -591
224 -687 244 -7 2 -20 5 -28 9 -65 24 -289 55 -302 42z"/>
</g>
</svg>
